<mxfile host="Electron" agent="Mozilla/5.0 (Windows NT 10.0; Win64; x64) AppleWebKit/537.36 (KHTML, like Gecko) draw.io/24.7.17 Chrome/128.0.6613.36 Electron/32.0.1 Safari/537.36" version="24.7.17">
  <diagram id="C5RBs43oDa-KdzZeNtuy" name="Page-1">
    <mxGraphModel dx="1050" dy="621" grid="1" gridSize="10" guides="1" tooltips="1" connect="1" arrows="1" fold="1" page="1" pageScale="1" pageWidth="827" pageHeight="1169" math="0" shadow="0">
      <root>
        <mxCell id="WIyWlLk6GJQsqaUBKTNV-0" />
        <mxCell id="WIyWlLk6GJQsqaUBKTNV-1" parent="WIyWlLk6GJQsqaUBKTNV-0" />
        <mxCell id="aIRQBn6vdH6Vw6u3YEIr-4" value="" style="edgeStyle=orthogonalEdgeStyle;rounded=0;orthogonalLoop=1;jettySize=auto;html=1;" edge="1" parent="WIyWlLk6GJQsqaUBKTNV-1" source="aIRQBn6vdH6Vw6u3YEIr-0" target="aIRQBn6vdH6Vw6u3YEIr-3">
          <mxGeometry relative="1" as="geometry" />
        </mxCell>
        <mxCell id="aIRQBn6vdH6Vw6u3YEIr-0" value="Bắt đầu" style="ellipse;whiteSpace=wrap;html=1;" vertex="1" parent="WIyWlLk6GJQsqaUBKTNV-1">
          <mxGeometry x="354" y="40" width="120" height="80" as="geometry" />
        </mxCell>
        <mxCell id="aIRQBn6vdH6Vw6u3YEIr-6" value="" style="edgeStyle=orthogonalEdgeStyle;rounded=0;orthogonalLoop=1;jettySize=auto;html=1;" edge="1" parent="WIyWlLk6GJQsqaUBKTNV-1" source="aIRQBn6vdH6Vw6u3YEIr-3" target="aIRQBn6vdH6Vw6u3YEIr-5">
          <mxGeometry relative="1" as="geometry" />
        </mxCell>
        <mxCell id="aIRQBn6vdH6Vw6u3YEIr-3" value="Nhập 2 số a và b" style="shape=parallelogram;perimeter=parallelogramPerimeter;whiteSpace=wrap;html=1;fixedSize=1;" vertex="1" parent="WIyWlLk6GJQsqaUBKTNV-1">
          <mxGeometry x="354" y="210" width="120" height="60" as="geometry" />
        </mxCell>
        <mxCell id="aIRQBn6vdH6Vw6u3YEIr-8" value="" style="edgeStyle=orthogonalEdgeStyle;rounded=0;orthogonalLoop=1;jettySize=auto;html=1;" edge="1" parent="WIyWlLk6GJQsqaUBKTNV-1" source="aIRQBn6vdH6Vw6u3YEIr-5" target="aIRQBn6vdH6Vw6u3YEIr-7">
          <mxGeometry relative="1" as="geometry" />
        </mxCell>
        <mxCell id="aIRQBn6vdH6Vw6u3YEIr-5" value="P = a + b" style="whiteSpace=wrap;html=1;" vertex="1" parent="WIyWlLk6GJQsqaUBKTNV-1">
          <mxGeometry x="354" y="350" width="120" height="60" as="geometry" />
        </mxCell>
        <mxCell id="aIRQBn6vdH6Vw6u3YEIr-10" value="" style="edgeStyle=orthogonalEdgeStyle;rounded=0;orthogonalLoop=1;jettySize=auto;html=1;" edge="1" parent="WIyWlLk6GJQsqaUBKTNV-1" source="aIRQBn6vdH6Vw6u3YEIr-7" target="aIRQBn6vdH6Vw6u3YEIr-9">
          <mxGeometry relative="1" as="geometry" />
        </mxCell>
        <mxCell id="aIRQBn6vdH6Vw6u3YEIr-7" value="In ra giá trị tổng P" style="shape=parallelogram;perimeter=parallelogramPerimeter;whiteSpace=wrap;html=1;fixedSize=1;" vertex="1" parent="WIyWlLk6GJQsqaUBKTNV-1">
          <mxGeometry x="354" y="490" width="120" height="60" as="geometry" />
        </mxCell>
        <mxCell id="aIRQBn6vdH6Vw6u3YEIr-9" value="" style="ellipse;whiteSpace=wrap;html=1;" vertex="1" parent="WIyWlLk6GJQsqaUBKTNV-1">
          <mxGeometry x="356" y="620" width="116" height="80" as="geometry" />
        </mxCell>
      </root>
    </mxGraphModel>
  </diagram>
</mxfile>
